<svg width="18" height="20" viewBox="0 0 18 20" fill="none" xmlns="http://www.w3.org/2000/svg">
<g clip-path="url(#clip0_339_7089)">
<path d="M0 18.8398C0 14.9922 3.11719 11.875 6.96484 11.875H10.5352C14.3828 11.875 17.5 14.9922 17.5 18.8398C17.5 19.4805 16.9805 20 16.3398 20H1.16016C0.519531 20 0 19.4805 0 18.8398Z" fill="#888C93"/>
<path opacity="0.4" d="M3.75 5C3.75 3.67392 4.27678 2.40215 5.21447 1.46447C6.15215 0.526784 7.42392 0 8.75 0C10.0761 0 11.3479 0.526784 12.2855 1.46447C13.2232 2.40215 13.75 3.67392 13.75 5C13.75 6.32608 13.2232 7.59785 12.2855 8.53553C11.3479 9.47322 10.0761 10 8.75 10C7.42392 10 6.15215 9.47322 5.21447 8.53553C4.27678 7.59785 3.75 6.32608 3.75 5Z" fill="#585D68"/>
</g>
<defs>
<clipPath id="clip0_339_7089">
<rect width="17.5" height="20" fill="white"/>
</clipPath>
</defs>
</svg>
